<svg width="141" height="104" viewBox="0 0 141 104" fill="none" xmlns="http://www.w3.org/2000/svg">
<path d="M52.1087 0C23.3753 0 0 23.3266 0 52C0 80.6734 23.3753 104 52.1087 104C52.9363 104 53.7418 103.917 54.5633 103.881C54.7717 103.923 54.9594 104 55.1739 104H82.7609C104.732 104 122.609 86.1609 122.609 64.2353V58.1176V39.7647V21.4118C122.609 12.9816 129.481 6.11765 137.935 6.11765C139.627 6.11765 141 4.74729 141 3.05882C141 1.37035 139.627 0 137.935 0C126.103 0 116.478 9.60471 116.478 21.4118V39.7647V58.1176V64.2353C116.478 82.7901 101.348 97.8824 82.7609 97.8824H76.5706C93.0001 89.1219 104.217 71.8518 104.217 52C104.217 23.3266 80.842 0 52.1087 0ZM52.1087 6.11765C77.4642 6.11765 98.087 26.6974 98.087 52C98.087 77.3026 77.4642 97.8824 52.1087 97.8824C26.7532 97.8824 6.13043 77.3026 6.13043 52C6.13043 26.6974 26.7532 6.11765 52.1087 6.11765ZM52.1087 12.2353C45.3468 12.2353 39.8478 17.7228 39.8478 24.4706C39.8478 31.2184 45.3468 36.7059 52.1087 36.7059C58.8706 36.7059 64.3696 31.2184 64.3696 24.4706C64.3696 17.7228 58.8706 12.2353 52.1087 12.2353ZM52.1087 18.3529C55.4927 18.3529 58.2391 21.0998 58.2391 24.4706C58.2391 27.8414 55.4927 30.5882 52.1087 30.5882C48.7247 30.5882 45.9783 27.8414 45.9783 24.4706C45.9783 21.0998 48.7247 18.3529 52.1087 18.3529ZM27.1439 26.2987C26.3454 26.3606 25.549 26.5071 24.7612 26.7289C21.604 27.6159 18.9859 29.6611 17.3736 32.5119C14.0631 38.3971 16.1639 45.8647 22.0552 49.1682C23.9188 50.2143 25.9637 50.7574 28.042 50.7574C29.1577 50.7574 30.2671 50.5972 31.3706 50.2914C34.5216 49.4043 37.1401 47.3591 38.7463 44.5083C40.3586 41.6574 40.7604 38.3629 39.8837 35.2123C38.9948 32.0678 36.9334 29.4548 34.0766 27.852C31.9386 26.6499 29.5397 26.1132 27.1439 26.2987ZM77.0854 26.2987C74.6888 26.1123 72.2908 26.6499 70.1528 27.852C67.296 29.4548 65.2284 32.0617 64.3456 35.2123C63.4628 38.3568 63.8588 41.6574 65.4711 44.5083C67.0773 47.3591 69.6958 49.4043 72.8468 50.2914C73.9503 50.5972 75.0597 50.7574 76.1754 50.7574C78.2475 50.7574 80.2985 50.2201 82.1622 49.1801C88.0535 45.8766 90.1662 38.4032 86.8558 32.5119C85.2496 29.6611 82.6253 27.6159 79.4682 26.7289C78.6789 26.5056 77.8843 26.3608 77.0854 26.2987ZM28.0659 32.3925C29.1019 32.3925 30.1336 32.6611 31.0593 33.1811C32.4877 33.9825 33.5155 35.2829 33.9569 36.8612C34.3982 38.4334 34.2092 40.0838 33.4061 41.5092C32.603 42.9346 31.2879 43.9603 29.7063 44.4007C28.143 44.829 26.4889 44.6406 25.0605 43.8392C22.1179 42.1874 21.0647 38.4475 22.7137 35.511C23.5168 34.0856 24.8319 33.06 26.4136 32.6195C26.9653 32.4665 27.5142 32.3925 28.0659 32.3925ZM76.1515 32.3925C76.7094 32.3925 77.2582 32.4665 77.8038 32.6195C79.3855 33.06 80.7006 34.0856 81.5037 35.511C83.1589 38.4536 82.1056 42.1993 79.1568 43.8511C77.7285 44.6464 76.0563 44.8351 74.4992 44.4007C72.9175 43.9603 71.6144 42.9346 70.8113 41.5092C70.0082 40.0838 69.8191 38.4334 70.2605 36.8612C70.6958 35.289 71.7236 33.9825 73.1581 33.1811C74.0838 32.6611 75.1155 32.3925 76.1515 32.3925ZM52.1087 42.8235C47.0388 42.8235 42.913 46.9407 42.913 52C42.913 57.0593 47.0388 61.1765 52.1087 61.1765C57.1786 61.1765 61.3044 57.0593 61.3044 52C61.3044 46.9407 57.1786 42.8235 52.1087 42.8235ZM52.1087 48.9412C53.7946 48.9412 55.1739 50.3115 55.1739 52C55.1739 53.6885 53.7946 55.0588 52.1087 55.0588C50.4228 55.0588 49.0435 53.6885 49.0435 52C49.0435 50.3115 50.4228 48.9412 52.1087 48.9412ZM28.9759 53.2785C26.5813 53.093 24.2024 53.6297 22.0552 54.8318C16.1638 58.1353 14.0511 65.5968 17.3616 71.4881C18.9678 74.3389 21.5921 76.396 24.7492 77.2831C25.8466 77.589 26.9563 77.7371 28.0659 77.7371C30.1441 77.7371 32.2071 77.206 34.0646 76.1599C36.9214 74.5571 38.989 71.9441 39.8718 68.7996C40.7546 65.6429 40.3586 62.3426 38.7463 59.4917C37.1401 56.6409 34.5216 54.5957 31.3706 53.7086C30.5798 53.4869 29.7741 53.3403 28.9759 53.2785ZM75.2295 53.2904C74.4319 53.3522 73.6346 53.4899 72.8468 53.7086C69.6958 54.5957 67.0773 56.6409 65.4711 59.4917C63.8588 62.3426 63.457 65.6371 64.3336 68.7877C65.2226 71.9322 67.284 74.5513 70.1408 76.148C72.0044 77.1941 74.0552 77.7252 76.1395 77.7252C77.2491 77.7252 78.3588 77.577 79.4562 77.2711C82.6134 76.3841 85.2315 74.3389 86.8438 71.4881C90.1543 65.6029 88.0535 58.1353 82.1622 54.8318C80.015 53.6251 77.6224 53.1052 75.2295 53.2904ZM76.1635 59.3603C77.1995 59.3603 78.2311 59.6289 79.1568 60.1489C82.1056 61.8129 83.1527 65.5525 81.5037 68.489C80.7006 69.9144 79.3855 70.94 77.8038 71.3805C76.2283 71.8088 74.5745 71.6203 73.1461 70.8189C71.7178 70.0175 70.6899 68.7171 70.2486 67.1388C69.8072 65.5666 70.0082 63.9162 70.8113 62.4908C71.6144 61.0654 72.9175 60.0278 74.4992 59.5873C75.0448 59.4344 75.6056 59.3603 76.1635 59.3603ZM28.042 59.3722C28.5998 59.3722 29.1607 59.4463 29.7063 59.5993C31.2879 60.0397 32.603 61.0654 33.4061 62.4908C34.2092 63.9162 34.3983 65.5666 33.9569 67.1388C33.5216 68.711 32.4938 70.0175 31.0593 70.8189C29.637 71.6142 27.9771 71.8149 26.4016 71.3805C24.8199 70.94 23.5049 69.9144 22.7018 68.489C21.0465 65.5464 22.1118 61.8007 25.0605 60.1489C25.9862 59.6289 27.0059 59.3722 28.042 59.3722ZM52.1087 67.2941C45.3468 67.2941 39.8478 72.7816 39.8478 79.5294C39.8478 86.2772 45.3468 91.7647 52.1087 91.7647C58.8706 91.7647 64.3696 86.2772 64.3696 79.5294C64.3696 72.7816 58.8706 67.2941 52.1087 67.2941ZM52.1087 73.4118C55.4927 73.4118 58.2391 76.1586 58.2391 79.5294C58.2391 82.9002 55.4927 85.6471 52.1087 85.6471C48.7247 85.6471 45.9783 82.9002 45.9783 79.5294C45.9783 76.1586 48.7247 73.4118 52.1087 73.4118Z" fill="#6F6F6F"/>
</svg>
